<?xml version="1.0" encoding="UTF-8" standalone="no"?>
<svg
   id="Layer_1"
   data-name="Layer 1"
   width="768"
   height="768"
   viewBox="0 0 768 768"
   version="1.1"
   sodipodi:docname="logo.svg"
   inkscape:version="1.1.1 (3bf5ae0d25, 2021-09-20, custom)"
   xmlns:inkscape="http://www.inkscape.org/namespaces/inkscape"
   xmlns:sodipodi="http://sodipodi.sourceforge.net/DTD/sodipodi-0.dtd"
   xmlns="http://www.w3.org/2000/svg"
   xmlns:svg="http://www.w3.org/2000/svg">
  <sodipodi:namedview
     id="namedview23"
     pagecolor="#ffffff"
     bordercolor="#999999"
     borderopacity="1"
     inkscape:pageshadow="0"
     inkscape:pageopacity="0"
     inkscape:pagecheckerboard="0"
     showgrid="false"
     inkscape:zoom="1.1367188"
     inkscape:cx="494.84536"
     inkscape:cy="402.91409"
     inkscape:window-width="3840"
     inkscape:window-height="2091"
     inkscape:window-x="0"
     inkscape:window-y="32"
     inkscape:window-maximized="1"
     inkscape:current-layer="Layer_1" />
  <defs
     id="defs4">
    <style
       id="style2">.cls-1,.cls-2{fill:#fff;}.cls-1{opacity:0;}.cls-3{fill:#a4a049;}</style>
  </defs>
  <rect
     class="cls-1"
     width="768"
     height="768"
     id="rect6" />
  <path
     class="cls-2"
     d="M518.4,426.67h51.2a120.23,120.23,0,0,1-23.47,42.66A133.45,133.45,0,0,1,518.4,426.67Z"
     id="path8" />
  <polygon
     class="cls-2"
     points="221.87 128 238.93 187.73 202.67 187.73 221.87 128"
     id="polygon10" />
  <path
     class="cls-2"
     d="M622.93,398.93H550.4l12.8-4.26a130.37,130.37,0,0,0-10.67-25.6l-25.6,8.53a89.1,89.1,0,0,1,8.54,21.33h-70.4v25.6H492.8a196.09,196.09,0,0,0,34.13,57.6,143.33,143.33,0,0,1-64,27.74,88.24,88.24,0,0,1,14.94,23.46,200.33,200.33,0,0,0,68.26-32,180.62,180.62,0,0,0,64,32A83.62,83.62,0,0,1,627.2,512a178.71,178.71,0,0,1-61.87-27.73,190.19,190.19,0,0,0,32-57.6h25.6Zm55.47-57.6v294.4h-2.13l-78.94-70.4H413.87v-224Z"
     id="path12" />
  <path
     class="cls-2"
     d="M356.27,281.6H170.67L91.73,352V59.73H356.27ZM256,238.93h32L243.2,102.4H202.67l-44.8,136.53h29.86l8.54-29.86h51.2Z"
     id="path14" />
  <path
     d="M546.13,469.33a120.23,120.23,0,0,0,23.47-42.66H518.4A133.45,133.45,0,0,0,546.13,469.33Zm4.27-70.4h72.53v27.74h-25.6a190.19,190.19,0,0,1-32,57.6A178.71,178.71,0,0,0,627.2,512a83.62,83.62,0,0,0-17.07,21.33,180.62,180.62,0,0,1-64-32,200.33,200.33,0,0,1-68.26,32,88.24,88.24,0,0,0-14.94-23.46,143.33,143.33,0,0,0,64-27.74,196.09,196.09,0,0,1-34.13-57.6H465.07v-25.6h70.4a89.1,89.1,0,0,0-8.54-21.33l25.6-8.53a130.37,130.37,0,0,1,10.67,25.6Z"
     id="path16" />
  <path
     d="M238.93,187.73,221.87,128l-19.2,59.73Zm4.27-85.33L288,238.93H256l-8.53-29.86h-51.2l-8.54,29.86H157.87l44.8-136.53Z"
     id="path18" />
  <path
     class="cls-3"
     d="M356.27,281.6V59.73H91.73V352l78.94-70.4ZM678.4,635.73V341.33H413.87v224H597.33l78.94,70.4ZM736,281.6V768L576,625.07H354.13V341.33H192L32,486.4V0H413.87V281.6Z"
     id="path20"
     style="fill:#ff7f2a" />
  <g
     id="g905"
     transform="translate(514.05075,44.918312)">
    <title
       id="title900">Layer 1</title>
    <g
       id="layer1">
      <path
         fill="#000000"
         fill-rule="nonzero"
         id="path3642"
         d="m -265.29431,592.58386 c 0,202.53976 -32.60902,260.51962 -14.13663,343.23179 7.71783,34.55795 48.02592,30.05507 54.73817,0 17.04717,-76.33028 -13.47021,-146.58113 -13.47021,-345.04012 0,-27.16945 21.7563,-27.87128 33.5303,-62.92497 10.51277,-31.29884 -4.32809,-199.85834 -9.11013,-199.85834 -5.45655,0 -2.78557,145.96984 -13.1296,145.96984 -10.43586,0 -5.15808,-143.99024 -11.75815,-145.96984 -6.60022,-1.97969 -1.75936,145.96984 -13.97017,145.96984 -12.33408,0 -4.31765,-145.96984 -10.91772,-145.96984 -6.60007,0 -4.74309,145.96984 -14.81059,145.96984 -11.08326,0 -5.12716,-145.96984 -10.07715,-145.96984 -8.41347,0 -18.26771,158.52633 -13.03487,192.0105 5.23287,33.48413 36.14675,39.82927 36.14675,72.58114 z"
         style="stroke-width:2.1647" />
      <path
         opacity="0.3"
         fill="#ffffff"
         fill-opacity="0.776905"
         fill-rule="nonzero"
         id="path3811"
         d="m 152.88882,97.500099 a 0.46280048,0.91490304 0 1 1 -0.91859,-0.224724 0.46280048,0.91490304 0 1 1 0.91859,0.224724 z" />
    </g>
  </g>
</svg>
